<svg width="21" height="20" viewBox="0 0 21 20" fill="none" xmlns="http://www.w3.org/2000/svg">
<g clip-path="url(#clip0_5_282)">
<path d="M2.22996 7.27162C2.34874 5.84632 3.54022 4.75 4.97047 4.75H16.0295C17.4598 4.75 18.6513 5.84632 18.77 7.27163L19.4367 15.2716C19.5703 16.8749 18.3051 18.25 16.6962 18.25H4.3038C2.69494 18.25 1.42969 16.8749 1.5633 15.2716L2.22996 7.27162Z" stroke="black" stroke-opacity="0.4" stroke-width="1.5"/>
<path d="M6.5 4C6.5 2.93913 6.92143 1.92172 7.67157 1.17157C8.42172 0.421427 9.43913 1.13814e-07 10.5 0C11.5609 -1.13814e-07 12.5783 0.421427 13.3284 1.17157C14.0786 1.92172 14.5 2.93913 14.5 4L13.1 4C13.1 3.31044 12.8261 2.64912 12.3385 2.16152C11.8509 1.67393 11.1896 1.4 10.5 1.4C9.81044 1.4 9.14912 1.67393 8.66152 2.16152C8.17393 2.64912 7.9 3.31044 7.9 4H6.5Z" fill="black" fill-opacity="0.4"/>
<path d="M7.56677 7.16668C7.16176 7.16668 6.82604 7.49822 6.90651 7.89516C7.04864 8.5962 7.39404 9.24607 7.90738 9.7594C8.59501 10.447 9.52764 10.8333 10.5001 10.8333C11.4726 10.8333 12.4052 10.447 13.0928 9.7594C13.6062 9.24607 13.9516 8.5962 14.0937 7.89516C14.1742 7.49822 13.8384 7.16668 13.4334 7.16668C13.0284 7.16668 12.7115 7.50381 12.579 7.88652C12.4711 8.19821 12.2934 8.48465 12.0557 8.72231C11.6432 9.13489 11.0836 9.36668 10.5001 9.36668C9.91663 9.36668 9.35705 9.13489 8.94447 8.72231C8.7068 8.48465 8.52913 8.19821 8.4212 7.88652C8.28867 7.50381 7.97178 7.16668 7.56677 7.16668Z" fill="black" fill-opacity="0.4"/>
</g>
<defs>
<clipPath id="clip0_5_282">
<rect width="20" height="20" fill="white" transform="translate(0.5)"/>
</clipPath>
</defs>
</svg>
