<svg width="24" height="20" viewBox="0 0 24 20" fill="none" xmlns="http://www.w3.org/2000/svg">
<path d="M16.125 11.125C16.125 13.6103 14.2782 15.625 12 15.625C9.72183 15.625 7.875 13.6103 7.875 11.125C7.875 8.63972 9.72183 6.625 12 6.625C14.2782 6.625 16.125 8.63972 16.125 11.125Z" stroke="black" stroke-opacity="0.4" stroke-width="1.33333"/>
<path d="M1 7.75V16C1 17.6569 2.23122 19 3.75 19H20.25C21.7688 19 23 17.6569 23 16V7.75C23 6.09315 21.7688 4.75 20.25 4.75H18.6637C17.5456 4.75 16.5402 4.00744 16.125 2.875C15.7098 1.74256 14.7044 1 13.5864 1H10.4137C9.29562 1 8.29023 1.74256 7.875 2.875C7.45977 4.00744 6.45438 4.75 5.33635 4.75H3.75C2.23122 4.75 1 6.09315 1 7.75Z" stroke="black" stroke-opacity="0.4" stroke-width="1.33333"/>
</svg>
