<svg width="20" height="21" viewBox="0 0 20 21" fill="none" xmlns="http://www.w3.org/2000/svg">
<circle cx="10" cy="10.5" r="10" fill="#FFE066"/>
<circle cx="9.99994" cy="10.5" r="7.77778" fill="#FFA31A"/>
<path d="M9.50419 5.6314C9.71153 5.22787 10.2884 5.22787 10.4957 5.6314L11.898 8.36071C11.9512 8.46426 12.0355 8.54855 12.1391 8.60175L14.8684 10.0041C15.2719 10.2114 15.2719 10.7883 14.8684 10.9956L12.1391 12.3979C12.0355 12.4511 11.9512 12.5354 11.898 12.639L10.4957 15.3683C10.2884 15.7718 9.71153 15.7718 9.50419 15.3683L8.10187 12.639C8.04867 12.5354 7.96438 12.4511 7.86083 12.3979L5.13152 10.9956C4.72799 10.7883 4.72799 10.2114 5.13153 10.0041L7.86083 8.60175C7.96438 8.54855 8.04867 8.46426 8.10187 8.36071L9.50419 5.6314Z" fill="white"/>
</svg>
