<svg width="21" height="20" viewBox="0 0 21 20" fill="none" xmlns="http://www.w3.org/2000/svg">
<circle cx="10.5" cy="9.99997" r="9.375" stroke="black" stroke-opacity="0.4" stroke-width="1.25"/>
<path d="M9.76306 5.74447C10.0383 5.09289 10.9617 5.09289 11.2369 5.74447L12.1555 7.91887C12.2366 8.11074 12.3893 8.26344 12.5811 8.34449L14.7555 9.26306C15.4071 9.53831 15.4071 10.4617 14.7555 10.7369L12.5811 11.6555C12.3893 11.7366 12.2366 11.8893 12.1555 12.0811L11.2369 14.2555C10.9617 14.9071 10.0383 14.9071 9.76306 14.2555L8.8445 12.0811C8.76344 11.8893 8.61074 11.7366 8.41887 11.6555L6.24447 10.7369C5.59289 10.4617 5.59289 9.53831 6.24447 9.26306L8.41887 8.3445C8.61074 8.26344 8.76344 8.11074 8.84449 7.91887L9.76306 5.74447Z" fill="black" fill-opacity="0.4"/>
</svg>
