<svg width="60" height="60" viewBox="0 0 60 60" fill="none" xmlns="http://www.w3.org/2000/svg">
<rect width="60" height="60" fill="white"/>
<path d="M16.0001 18.4352C16.0001 16.3802 17.666 14.7143 19.721 14.7143H46.5648C48.6199 14.7143 50.2858 16.3802 50.2858 18.4352V34.4215C50.2858 36.4611 48.6439 38.1205 46.6045 38.1422L34.2768 38.2736C33.5377 38.2815 32.8176 38.5094 32.2085 38.9282L23.5565 44.8764C22.8748 45.3451 21.9663 44.7574 22.1142 43.9434L22.4464 42.1164C22.8091 40.1218 21.2768 38.2857 19.2495 38.2857C17.4549 38.2857 16.0001 36.8309 16.0001 35.0363V18.4352Z" fill="black" fill-opacity="0.6"/>
<path d="M11.0001 13.7209C11.0001 11.6659 12.666 9.99994 14.721 9.99994H41.5648C43.6199 9.99994 45.2858 11.6659 45.2858 13.7209V29.7072C45.2858 31.7467 43.6439 33.4061 41.6045 33.4279L28.1429 33.5714H18.1429H14.721C12.666 33.5714 11.0001 31.9055 11.0001 29.8504V13.7209Z" fill="black" fill-opacity="0.4"/>
<ellipse cx="26.1819" cy="24.1999" rx="2.18182" ry="2.2" fill="white"/>
<ellipse cx="33.6531" cy="24.3435" rx="2.18182" ry="2.2" fill="white"/>
<ellipse cx="40.5398" cy="24.3435" rx="2.18182" ry="2.2" fill="white"/>
<rect x="38" y="42" width="12" height="12" rx="6" fill="#E9498C"/>
</svg>
