<svg width="20" height="20" viewBox="0 0 20 20" fill="none" xmlns="http://www.w3.org/2000/svg">
<circle cx="9.99997" cy="9.99925" r="8.5" transform="rotate(-5 9.99997 9.99925)" stroke="#89B0C8"/>
<path d="M5.41375 7.46755C5.36076 6.86186 5.49461 6.37233 5.81529 5.99896C6.14394 5.6249 6.58719 5.41346 7.14506 5.36465C7.70293 5.31584 8.17219 5.44745 8.55283 5.75946C8.94144 6.07077 9.16224 6.52927 9.21523 7.13496C9.26892 7.74862 9.13144 8.24248 8.80279 8.61655C8.48211 8.98992 8.04284 9.201 7.48497 9.24981C6.9271 9.29862 6.45386 9.16736 6.06525 8.85605C5.68461 8.54404 5.46744 8.0812 5.41375 7.46755ZM12.9316 5.00295L8.96561 13.782L7.33982 13.9242L11.2938 5.14623L12.9316 5.00295ZM7.22096 6.36986C6.78264 6.40821 6.59067 6.7382 6.64505 7.35982C6.70013 7.98942 6.94684 8.28504 7.38516 8.24669C7.60034 8.22787 7.76108 8.13751 7.86737 7.97563C7.97297 7.80578 8.01183 7.56147 7.98394 7.24269C7.92955 6.62106 7.67523 6.33012 7.22096 6.36986ZM11.079 11.7782C11.0253 11.1645 11.1592 10.675 11.4805 10.3096C11.8092 9.93554 12.2524 9.7241 12.8103 9.6753C13.3682 9.62649 13.8335 9.75844 14.2061 10.0711C14.5861 10.3752 14.8029 10.834 14.8566 11.4477C14.9103 12.0614 14.7768 12.5549 14.4561 12.9282C14.1434 13.3009 13.7081 13.5116 13.1502 13.5605C12.5844 13.61 12.1111 13.4787 11.7305 13.1667C11.3499 12.8547 11.1327 12.3918 11.079 11.7782ZM12.8862 10.6805C12.432 10.7202 12.232 11.0509 12.2864 11.6726C12.3415 12.3022 12.5962 12.5971 13.0504 12.5573C13.4967 12.5183 13.6923 12.184 13.6372 11.5544C13.5829 10.9327 13.3325 10.6415 12.8862 10.6805Z" fill="#89B0C8"/>
</svg>
