<svg width="20" height="20" viewBox="0 0 20 20" fill="none" xmlns="http://www.w3.org/2000/svg">
<path d="M12.0001 5.58817C12.0001 6.59759 11.1331 7.46608 10.0001 7.46608C8.86717 7.46608 8.00012 6.59759 8.00012 5.58817C8.00012 4.57875 8.86717 3.71027 10.0001 3.71027C11.1331 3.71027 12.0001 4.57875 12.0001 5.58817Z" stroke="black" stroke-opacity="0.4" stroke-width="1.25"/>
<path d="M15.2084 12.6201C15.2084 13.1614 14.7969 13.7895 13.8258 14.3186C12.8784 14.8348 11.527 15.1734 10 15.1734C8.47305 15.1734 7.1216 14.8348 6.17426 14.3186C5.20313 13.7895 4.79169 13.1614 4.79169 12.6201C4.79169 12.0787 5.20313 11.4506 6.17426 10.9215C7.1216 10.4053 8.47305 10.0668 10 10.0668C11.527 10.0668 12.8784 10.4053 13.8258 10.9215C14.7969 11.4506 15.2084 12.0787 15.2084 12.6201Z" stroke="black" stroke-opacity="0.4" stroke-width="1.25"/>
<circle cx="10" cy="10" r="9.375" stroke="black" stroke-opacity="0.4" stroke-width="1.25"/>
</svg>
