<svg width="20" height="20" viewBox="0 0 20 20" fill="none" xmlns="http://www.w3.org/2000/svg">
<g clip-path="url(#clip0_5_263)">
<path d="M18.3333 8.33333C18.3333 12.9357 9.99999 20 9.99999 20C9.99999 20 1.66666 12.9357 1.66666 8.33333C1.66666 3.73096 5.39762 0 9.99999 0C14.6024 0 18.3333 3.73096 18.3333 8.33333Z" fill="#242742"/>
<path d="M16.25 8.05551C16.25 11.5073 10 17.5 10 17.5C10 17.5 3.75 11.5073 3.75 8.05551C3.75 4.60373 6.54822 1.80551 10 1.80551C13.4518 1.80551 16.25 4.60373 16.25 8.05551Z" fill="#242742"/>
<path d="M9.20832 5.09529C9.47053 4.35528 10.5171 4.35528 10.7793 5.09529L11.206 6.29945C11.2899 6.53632 11.4762 6.72267 11.7131 6.80661L12.9173 7.23328C13.6573 7.49549 13.6573 8.54203 12.9173 8.80424L11.7131 9.23091C11.4762 9.31485 11.2899 9.5012 11.206 9.73807L10.7793 10.9422C10.5171 11.6822 9.47053 11.6822 9.20832 10.9422L8.78164 9.73807C8.69771 9.5012 8.51136 9.31485 8.27448 9.23091L7.07033 8.80424C6.33032 8.54203 6.33032 7.49549 7.07033 7.23328L8.27448 6.80661C8.51136 6.72267 8.69771 6.53632 8.78164 6.29945L9.20832 5.09529Z" fill="white"/>
</g>
<defs>
<clipPath id="clip0_5_263">
<rect width="20" height="20" fill="white"/>
</clipPath>
</defs>
</svg>
