<svg width="20" height="20" viewBox="0 0 20 20" fill="none" xmlns="http://www.w3.org/2000/svg">
<path d="M16.4095 14.4403H15.3724L15.0048 14.0859C16.2913 12.5893 17.0658 10.6465 17.0658 8.53292C17.0658 3.82012 13.2457 0 8.53292 0C3.82012 0 0 3.82012 0 8.53292C0 13.2457 3.82012 17.0658 8.53292 17.0658C10.6465 17.0658 12.5893 16.2913 14.0859 15.0048L14.4403 15.3724V16.4095L18.044 20L20 18.044L16.4095 14.4403ZM8.53292 14.4403C5.26415 14.4403 2.62551 11.8017 2.62551 8.53292C2.62551 5.26415 5.26415 2.62551 8.53292 2.62551C11.8017 2.62551 14.4403 5.26415 14.4403 8.53292C14.4403 11.8017 11.8017 14.4403 8.53292 14.4403Z" fill="black" fill-opacity="0.4"/>
</svg>
