<svg width="17" height="17" viewBox="0 0 17 17" fill="none" xmlns="http://www.w3.org/2000/svg">
<path fill-rule="evenodd" clip-rule="evenodd" d="M5.8955 15.9591C10.1019 17.3109 14.6077 14.9969 15.9596 10.7905C17.3114 6.58413 14.9974 2.07828 10.791 0.726427C6.58463 -0.625431 2.07879 1.68862 0.726927 5.895C-0.624931 10.1014 1.68912 14.6072 5.8955 15.9591ZM10.2948 3.87089C10.2168 3.43374 9.68171 3.26176 9.36365 3.57163L7.1249 5.75266C7.04557 5.82994 6.94489 5.88165 6.83586 5.9011L3.75892 6.45003C3.32177 6.52801 3.1498 7.06313 3.45966 7.38119L5.64069 9.61994C5.71797 9.69927 5.76968 9.79995 5.78913 9.90898L6.33806 12.9859C6.41605 13.4231 6.95116 13.595 7.26923 13.2852L9.50797 11.1042C9.5873 11.0269 9.68799 10.9752 9.79701 10.9557L12.874 10.4068C13.3111 10.3288 13.4831 9.79368 13.1732 9.47561L10.9922 7.23687C10.9149 7.15754 10.8632 7.05686 10.8437 6.94783L10.2948 3.87089Z" fill="#ABD689"/>
</svg>
